<svg width="283" height="283" viewBox="0 0 283 283" fill="none" xmlns="http://www.w3.org/2000/svg">
<path d="M65.2603 194.472C61.6788 186.648 61.4584 184.389 69.3376 181.744C83.4431 177.337 73.7456 186.814 93.1405 208.853H93.3058V157.115C93.967 129.455 117.549 106.314 147.138 106.314C176.836 106.314 200.97 130.282 200.97 159.65C200.97 194.583 167.469 222.022 130.167 211.057C124.382 208.743 129.01 193.591 134.851 195.299C164.053 195.299 184.109 189.734 184.109 159.815C184.109 126.204 141.628 110.446 119.698 135.241C106.75 149.787 110.001 158.437 110.001 222.077C137.936 239.158 175.183 234.199 198.38 211.002C212.045 197.338 219.593 179.045 219.593 159.76C219.593 140.365 211.99 122.182 198.215 108.352C184.55 94.6876 166.367 87.139 146.807 87.139C127.247 87.139 108.899 94.7427 95.2894 108.352C95.1241 108.518 86.4735 117.444 83.6084 121.521L83.3329 121.852C81.5146 124.441 79.8616 126.866 72.2579 125.213C68.4561 124.276 64.3787 122.017 64.3787 118.711V15.7854C64.3787 13.0305 66.5276 10 70.1641 10H203.119C207.692 10 207.692 16.3915 207.692 18.32C207.692 20.4689 207.692 26.64 203.119 26.64H80.1371V99.8669H80.3024C137.716 39.3679 236.123 80.0312 236.123 159.87C236.123 258.002 101.24 281.254 65.2603 194.472ZM100.138 50.7735C99.8626 53.0876 102.673 64.2728 108.183 62.1239C176.947 35.9518 219.924 84.384 223.561 84.384C226.205 84.384 236.123 75.9538 231.44 71.8214C180.087 22.783 102.232 40.4148 100.138 50.7735ZM224.883 233.262C164.274 293.816 60.1361 266.763 41.9533 175.849C41.9533 169.127 25.2031 171.771 26.0296 177.667C39.2534 273.209 161.574 319.217 236.288 244.503C240.09 240.205 229.346 228.854 224.883 233.262ZM126.035 173.7C126.035 175.904 128.404 177.722 129.065 178.383C130.718 180.036 132.426 180.808 133.749 180.808C135.842 180.808 135.181 180.918 146.036 170.063C156.835 180.698 156.56 180.808 158.323 180.808C161.298 180.808 168.516 175.077 164.219 170.78L154.686 161.247L164.714 151.219C168.186 147.473 159.149 139.208 155.788 142.569L145.926 152.432C135.677 142.073 135.787 141.687 134.079 141.687C131.324 141.687 124.161 148.134 127.247 151.219L137.275 161.247C127.302 171.11 126.035 171.827 126.035 173.7Z" fill="#777777" fill-opacity="0.67"/>
</svg>
